<svg id="visual" viewBox="0 0 1920 1080" width="1920" height="1080" xmlns="http://www.w3.org/2000/svg" xmlns:xlink="http://www.w3.org/1999/xlink" version="1.1"><rect width="1920" height="1080" fill="#041522"></rect><g><g transform="translate(247 675)"><path d="M0 -288.1L249.5 -144L249.5 144L0 288.1L-249.5 144L-249.5 -144Z" fill="#592894"></path></g><g transform="translate(1737 700)"><path d="M0 -179L155 -89.5L155 89.5L0 179L-155 89.5L-155 -89.5Z" fill="#592894"></path></g><g transform="translate(745 1024)"><path d="M0 -252L218.2 -126L218.2 126L0 252L-218.2 126L-218.2 -126Z" fill="#592894"></path></g><g transform="translate(1006 68)"><path d="M0 -220L190.5 -110L190.5 110L0 220L-190.5 110L-190.5 -110Z" fill="#592894"></path></g></g></svg>